<?xml version="1.0" standalone="no"?>
<!DOCTYPE svg PUBLIC "-//W3C//DTD SVG 20010904//EN"
 "http://www.w3.org/TR/2001/REC-SVG-20010904/DTD/svg10.dtd">
<svg version="1.0" xmlns="http://www.w3.org/2000/svg"
 width="637.000000pt" height="637.000000pt" viewBox="0 0 637.000000 637.000000"
 preserveAspectRatio="xMidYMid meet">
<metadata>
Created by potrace 1.14, written by Peter Selinger 2001-2017
</metadata>
<g transform="translate(0.000000,637.000000) scale(0.100000,-0.100000)"
fill="#000000" stroke="none">
<path d="M2989 5136 c-2 -3 -33 -7 -69 -11 -36 -4 -68 -9 -73 -12 -4 -3 -27
-7 -50 -10 -45 -5 -166 -39 -262 -73 -33 -12 -64 -23 -70 -24 -24 -6 -158 -74
-241 -122 -548 -320 -889 -844 -965 -1484 -11 -90 -7 -407 6 -475 28 -149 52
-248 85 -346 40 -121 138 -339 165 -365 8 -9 15 -19 15 -24 0 -29 144 -218
247 -323 231 -238 401 -353 728 -491 82 -34 275 -82 422 -104 106 -17 305 -21
453 -12 291 20 633 142 909 324 126 83 108 69 262 218 205 200 344 400 443
641 51 122 110 322 122 411 2 15 5 35 8 45 9 29 20 194 20 291 0 239 -30 420
-106 645 -177 525 -599 965 -1123 1173 -247 98 -436 132 -730 132 -105 0 -194
-2 -196 -4z"/>
</g>
</svg>
